<?xml version="1.0" encoding="UTF-8" standalone="no"?>
<!-- Created with Inkscape (http://www.inkscape.org/) -->

<svg
   xmlns:osb="http://www.openswatchbook.org/uri/2009/osb"
   xmlns:dc="http://purl.org/dc/elements/1.1/"
   xmlns:cc="http://creativecommons.org/ns#"
   xmlns:rdf="http://www.w3.org/1999/02/22-rdf-syntax-ns#"
   xmlns:svg="http://www.w3.org/2000/svg"
   xmlns="http://www.w3.org/2000/svg"
   xmlns:sodipodi="http://sodipodi.sourceforge.net/DTD/sodipodi-0.dtd"
   xmlns:inkscape="http://www.inkscape.org/namespaces/inkscape"
   sodipodi:docname="com.github.matfantinel.moneta-symbolic.svg"
   inkscape:export-filename="/home/sam/source-symbolic.png"
   inkscape:export-xdpi="270"
   inkscape:export-ydpi="270"
   height="16.034546"
   id="svg7384"
   style="enable-background:new"
   version="1.1"
   inkscape:version="0.92.4 5da689c313, 2019-01-14"
   width="16.000244">
  <sodipodi:namedview
     inkscape:bbox-nodes="true"
     inkscape:bbox-paths="false"
     bordercolor="#666666"
     borderlayer="false"
     borderopacity="1"
     inkscape:current-layer="g6058"
     inkscape:cx="-41.786621"
     inkscape:cy="-6.705979"
     gridtolerance="10"
     inkscape:guide-bbox="true"
     guidetolerance="10"
     id="namedview88"
     inkscape:object-nodes="true"
     inkscape:object-paths="true"
     objecttolerance="10"
     pagecolor="#f7f7f7"
     inkscape:pageopacity="1"
     inkscape:pageshadow="2"
     showborder="true"
     showgrid="false"
     showguides="false"
     inkscape:showpageshadow="false"
     inkscape:snap-bbox="true"
     inkscape:snap-bbox-edge-midpoints="false"
     inkscape:snap-bbox-midpoints="true"
     inkscape:snap-center="false"
     inkscape:snap-global="true"
     inkscape:snap-grids="true"
     inkscape:snap-intersection-paths="false"
     inkscape:snap-midpoints="false"
     inkscape:snap-nodes="true"
     inkscape:snap-object-midpoints="true"
     inkscape:snap-others="true"
     inkscape:snap-page="false"
     inkscape:snap-smooth-nodes="false"
     inkscape:snap-to-guides="true"
     inkscape:window-height="1017"
     inkscape:window-maximized="1"
     inkscape:window-width="1920"
     inkscape:window-x="0"
     inkscape:window-y="30"
     inkscape:zoom="4">
    <inkscape:grid
       color="#000000"
       dotted="false"
       empcolor="#0800ff"
       empopacity="0.4627451"
       empspacing="4"
       enabled="true"
       id="grid4866"
       opacity="0.16470588"
       originx="-39.999756"
       originy="-656"
       snapvisiblegridlinesonly="true"
       spacingx="0.25"
       spacingy="0.25"
       type="xygrid"
       visible="true" />
  </sodipodi:namedview>
  <metadata
     id="metadata90">
    <rdf:RDF>
      <cc:Work
         rdf:about="">
        <dc:format>image/svg+xml</dc:format>
        <dc:type
           rdf:resource="http://purl.org/dc/dcmitype/StillImage" />
        <dc:title>Paper Symbolic Icon Theme</dc:title>
      </cc:Work>
    </rdf:RDF>
  </metadata>
  <title
     id="title8473">Paper Symbolic Icon Theme</title>
  <defs
     id="defs7386">
    <linearGradient
       id="linearGradient5606"
       osb:paint="solid">
      <stop
         id="stop5608"
         offset="0"
         style="stop-color:#000000;stop-opacity:1;" />
    </linearGradient>
    <linearGradient
       id="linearGradient1087-7">
      <stop
         style="stop-color:#c6262e;stop-opacity:1"
         offset="0"
         id="stop1081" />
      <stop
         id="stop1083"
         offset="0.50190115"
         style="stop-color:#ff8c82;stop-opacity:1" />
      <stop
         style="stop-color:#c6262e;stop-opacity:0.94117647"
         offset="1"
         id="stop1085" />
    </linearGradient>
    <linearGradient
       id="linearGradient1236">
      <stop
         id="stop1230"
         offset="0"
         style="stop-color:#3a9104;stop-opacity:1" />
      <stop
         style="stop-color:#9bdb4d;stop-opacity:1"
         offset="0.50190115"
         id="stop1232" />
      <stop
         id="stop1234"
         offset="1"
         style="stop-color:#3a9104;stop-opacity:1" />
    </linearGradient>
  </defs>
  <g
     inkscape:groupmode="layer"
     id="g6058"
     inkscape:label="apps"
     style="display:inline"
     transform="translate(-39.999756,-27.965454)">
    <path
       style="fill:#555555;fill-opacity:1;stroke:none"
       d="M 8 0.03515625 C 3.58172 0.03515625 0 3.6168766 0 8.0351562 C 0 12.453436 3.58172 16.035156 8 16.035156 C 12.41828 16.035156 16 12.453436 16 8.0351562 C 16 3.6168766 12.41828 0.03515625 8 0.03515625 z M 8 1.0351562 C 11.865993 1.0351562 15 4.1691633 15 8.0351562 C 15 11.901149 11.865993 15.035156 8 15.035156 C 4.134007 15.035156 1 11.901149 1 8.0351562 C 1 4.1691633 4.134007 1.0351562 8 1.0351562 z M 8 2.0351562 C 4.686292 2.0351562 2 4.7214486 2 8.0351562 C 2 11.348864 4.686292 14.035156 8 14.035156 C 11.313708 14.035156 14 11.348864 14 8.0351562 C 14 4.7214485 11.313708 2.0351562 8 2.0351562 z M 8 3.4570312 C 8.385868 3.4570312 8.7070312 3.7781965 8.7070312 4.1640625 L 8.7070312 4.5078125 C 9.5622293 4.8227845 10.209637 5.5583228 10.210938 6.4960938 C 10.210938 6.8816427 9.8894572 7.203125 9.5039062 7.203125 C 9.1183553 7.203125 8.796875 6.8816397 8.796875 6.4960938 C 8.796875 6.0505858 8.445443 5.6992188 8 5.6992188 C 7.554559 5.6992188 7.2011719 6.0506538 7.2011719 6.4960938 C 7.2011719 6.9415348 7.554491 7.2949219 8 7.2949219 C 9.144924 7.2949219 10.105838 8.1774244 10.203125 9.3183594 C 10.288663 10.321006 9.6212613 11.144878 8.7070312 11.484375 L 8.7070312 11.90625 C 8.7070312 12.292069 8.385598 12.613281 8 12.613281 C 7.614448 12.613281 7.2929688 12.291803 7.2929688 11.90625 L 7.2929688 11.494141 C 6.4377197 11.179202 5.7903625 10.445535 5.7890625 9.5078125 C 5.7890625 9.5078125 5.7890625 9.5058594 5.7890625 9.5058594 C 5.7890625 9.1203104 6.1085906 8.7988281 6.4941406 8.7988281 C 6.8797376 8.7988281 7.2011719 9.1200354 7.2011719 9.5058594 C 7.2016319 9.9497104 7.5521697 10.302087 7.9960938 10.304688 C 7.9973938 10.30467 7.9987 10.304688 8 10.304688 C 8 10.304688 8.0019531 10.304688 8.0019531 10.304688 C 8.4454501 10.301232 8.7939687 9.9476772 8.7929688 9.5039062 C 8.7919307 9.0601943 8.4416009 8.7104844 7.9980469 8.7089844 C 6.8538459 8.7079844 5.894135 7.8256629 5.796875 6.6855469 C 5.71133 5.6826569 6.3786417 4.8570961 7.2929688 4.5175781 L 7.2929688 4.1640625 C 7.3469198 3.8279015 7.623733 3.4554313 8 3.4570312 z "
       transform="translate(39.999756,27.965454)"
       id="path7952" />
  </g>
</svg>
